<svg width="40" height="41" viewBox="0 0 40 41" fill="none" xmlns="http://www.w3.org/2000/svg">
<path d="M27.7812 26.3438C28.0625 26.6562 28.0625 27.125 27.75 27.4062L26.875 28.2812C26.5938 28.5938 26.125 28.5938 25.8125 28.2812L22.7188 25.1875C22.5625 25.0312 22.5 24.8438 22.5 24.6562V24.125C21.375 25 20 25.5 18.5 25.5C14.9062 25.5 12 22.5938 12 19C12 15.4375 14.9062 12.5 18.5 12.5C22.0625 12.5 25 15.4375 25 19C25 20.5312 24.4688 21.9062 23.625 23H24.125C24.3125 23 24.5 23.0938 24.6562 23.2188L27.7812 26.3438ZM18.5 23C20.6875 23 22.5 21.2188 22.5 19C22.5 16.8125 20.6875 15 18.5 15C16.2812 15 14.5 16.8125 14.5 19C14.5 21.2188 16.2812 23 18.5 23Z" fill="#183B56"/>
</svg>
