<svg width="16" height="16" viewBox="0 0 16 16" fill="none" xmlns="http://www.w3.org/2000/svg">
<path d="M7.07031 2.58203L7.67188 1.98047C7.94531 1.73438 8.35547 1.73438 8.60156 1.98047L13.9336 7.28516C14.1797 7.55859 14.1797 7.96875 13.9336 8.21484L8.60156 13.5469C8.35547 13.793 7.94531 13.793 7.67188 13.5469L7.07031 12.9453C6.82422 12.6719 6.82422 12.2617 7.07031 11.9883L10.3789 8.84375H2.53125C2.14844 8.84375 1.875 8.57031 1.875 8.1875V7.3125C1.875 6.95703 2.14844 6.65625 2.53125 6.65625H10.3789L7.07031 3.53906C6.82422 3.26562 6.79688 2.85547 7.07031 2.58203Z" fill="#1565D8"/>
</svg>
