<svg width="8" height="6" viewBox="0 0 8 6" fill="none" xmlns="http://www.w3.org/2000/svg">
<path d="M2.93229 5.54947L0.757817 3.38801C0.697054 3.32725 0.666672 3.24913 0.666672 3.15364C0.666672 3.05815 0.697054 2.98003 0.757817 2.91927L1.23959 2.45052C1.30035 2.38107 1.37631 2.34635 1.46745 2.34635C1.5586 2.34635 1.63889 2.38107 1.70834 2.45052L3.16667 3.90885L6.29166 0.783854C6.3611 0.71441 6.4414 0.679688 6.53254 0.679688C6.62369 0.679688 6.69964 0.71441 6.76041 0.783854L7.24218 1.2526C7.30294 1.31337 7.33332 1.39149 7.33332 1.48698C7.33332 1.58246 7.30294 1.66059 7.24218 1.72135L3.40104 5.54947C3.34028 5.61891 3.26215 5.65363 3.16667 5.65363C3.07118 5.65363 2.99306 5.61891 2.93229 5.54947Z" fill="#36B37E"/>
</svg>
