<svg width="37" height="36" viewBox="0 0 37 36" fill="none" xmlns="http://www.w3.org/2000/svg">
<path d="M9.75 18C9.74784 20.1247 10.4974 22.1816 11.8661 23.8067C13.2348 25.4318 15.1343 26.5203 17.2283 26.8796C19.3224 27.2388 21.4761 26.8456 23.3081 25.7695C25.1402 24.6934 26.5324 23.0039 27.2385 21H18.75V15H33.4575V21H33.45C32.0595 27.846 26.007 33 18.75 33C10.4655 33 3.75 26.2845 3.75 18C3.75 9.7155 10.4655 3 18.75 3C21.2018 2.99826 23.6165 3.59813 25.7825 4.747C27.9484 5.89588 29.7994 7.55866 31.173 9.5895L26.256 13.032C25.1886 11.4186 23.6298 10.1921 21.8105 9.53425C19.9913 8.8764 18.0085 8.82223 16.1561 9.37978C14.3037 9.93732 12.6802 11.0769 11.5263 12.6296C10.3724 14.1823 9.74954 16.0655 9.75 18Z" fill="#5A7184"/>
</svg>
