<svg width="25" height="24" viewBox="0 0 25 24" fill="none" xmlns="http://www.w3.org/2000/svg">
<path fill-rule="evenodd" clip-rule="evenodd" d="M22.59 6.05593C22.6336 5.79125 22.6055 5.51971 22.5085 5.26961C22.4115 5.01951 22.2492 4.8 22.0385 4.63394C21.8278 4.46789 21.5764 4.36137 21.3106 4.32549C21.0448 4.28961 20.7742 4.32567 20.527 4.42993L3.427 11.6299C2.235 12.1319 2.174 13.8559 3.427 14.3759C4.66771 14.8934 5.92652 15.3663 7.201 15.7939C8.369 16.1799 9.643 16.5369 10.664 16.6379C10.943 16.9719 11.294 17.2939 11.652 17.5879C12.199 18.0379 12.857 18.5009 13.537 18.9449C14.899 19.8349 16.41 20.6859 17.428 21.2399C18.645 21.8999 20.102 21.1399 20.32 19.8129L22.59 6.05593ZM5.344 12.9929L20.468 6.62493L18.35 19.4649C17.351 18.9219 15.912 18.1089 14.63 17.2709C14.0391 16.8916 13.4687 16.4813 12.921 16.0419C12.7746 15.9224 12.6325 15.7976 12.495 15.6679L16.456 11.7079C16.6436 11.5204 16.7491 11.2661 16.7492 11.0008C16.7493 10.7355 16.644 10.4811 16.4565 10.2934C16.269 10.1058 16.0146 10.0003 15.7494 10.0002C15.4841 10.0001 15.2296 10.1054 15.042 10.2929L10.705 14.6299C9.971 14.5359 8.949 14.2639 7.827 13.8939C6.99169 13.6157 6.16406 13.3149 5.345 12.9919L5.344 12.9929Z" fill="#959EAD"/>
</svg>
