<svg width="25" height="24" viewBox="0 0 25 24" fill="none" xmlns="http://www.w3.org/2000/svg">
<path fill-rule="evenodd" clip-rule="evenodd" d="M8.922 15.829C12.767 19.674 16.33 20.095 17.376 20.134C18.64 20.18 19.93 19.148 20.488 18.091C19.598 17.047 18.439 16.237 17.17 15.359C16.421 16.107 15.498 17.497 14.269 16.999C13.57 16.718 11.844 15.923 10.336 14.414C8.827 12.906 8.033 11.18 7.75 10.482C7.252 9.25097 8.646 8.32597 9.395 7.57697C8.517 6.28697 7.721 5.09797 6.679 4.25297C5.607 4.81297 4.569 6.09297 4.616 7.37397C4.655 8.41997 5.076 11.983 8.922 15.829ZM17.302 22.133C15.862 22.08 11.781 21.516 7.507 17.243C3.234 12.969 2.671 8.88897 2.617 7.44797C2.537 5.25197 4.219 3.11897 6.162 2.28597C6.39598 2.18494 6.6522 2.14647 6.90553 2.17435C7.15886 2.20222 7.40059 2.29548 7.607 2.44497C9.215 3.61797 10.324 5.39497 11.277 6.78697C11.4752 7.07642 11.5661 7.42607 11.5337 7.77542C11.5014 8.12476 11.348 8.45181 11.1 8.69997L9.744 10.057C10.059 10.752 10.7 11.95 11.75 13C12.8 14.05 13.998 14.691 14.694 15.006L16.049 13.65C16.2981 13.4015 16.6265 13.2482 16.977 13.217C17.3275 13.1857 17.6778 13.2784 17.967 13.479C19.387 14.463 21.055 15.556 22.271 17.113C22.4326 17.3209 22.5354 17.5684 22.5687 17.8296C22.6019 18.0908 22.5644 18.3562 22.46 18.598C21.623 20.551 19.505 22.214 17.302 22.133Z" fill="#959EAD"/>
</svg>
