<svg width="37" height="36" viewBox="0 0 37 36" fill="none" xmlns="http://www.w3.org/2000/svg">
<path d="M10.66 7.50004C10.6596 8.29568 10.3431 9.05859 9.78023 9.62092C9.21734 10.1832 8.45412 10.4989 7.65847 10.4985C6.86282 10.4981 6.09992 10.1817 5.53759 9.6188C4.97526 9.0559 4.65958 8.29269 4.65997 7.49704C4.66037 6.70139 4.97682 5.93848 5.53971 5.37615C6.1026 4.81383 6.86582 4.49814 7.66147 4.49854C8.45712 4.49893 9.22003 4.81539 9.78235 5.37828C10.3447 5.94117 10.6604 6.70439 10.66 7.50004ZM10.75 12.72H4.74997V31.5H10.75V12.72ZM20.23 12.72H14.26V31.5H20.17V21.645C20.17 16.155 27.325 15.645 27.325 21.645V31.5H33.25V19.605C33.25 10.35 22.66 10.695 20.17 15.24L20.23 12.72Z" fill="#5A7184"/>
</svg>
