<svg width="47" height="36" viewBox="0 0 47 36" fill="none" xmlns="http://www.w3.org/2000/svg">
<g clip-path="url(#clip0_334_405)">
<path d="M41.677 5.5141H30.2215V8.2951H41.677V5.5141ZM36.028 15.0631C35.4307 15.0261 34.8322 15.1116 34.2692 15.3142C33.7062 15.5169 33.1906 15.8326 32.754 16.2418C32.3174 16.651 31.9691 17.1451 31.7304 17.6938C31.4917 18.2425 31.3677 18.8342 31.366 19.4326H40.513C40.5467 18.8382 40.4523 18.2435 40.2363 17.6888C40.0202 17.1341 39.6876 16.6322 39.2607 16.2172C38.8339 15.8022 38.3229 15.4837 37.7623 15.2833C37.2018 15.0829 36.6047 15.0052 36.0115 15.0556L36.0265 15.0541L36.028 15.0631ZM36.388 28.1761C37.3568 28.1723 38.3083 27.9192 39.151 27.4411L39.1225 27.4561C39.5183 27.2624 39.8719 26.9924 40.163 26.6616C40.4542 26.3308 40.6771 25.9458 40.819 25.5286L40.8265 25.5046H45.7795C44.7265 29.5066 41.1415 32.4106 36.877 32.4106C36.6415 32.4106 36.4075 32.4016 36.1765 32.3836L36.208 32.3851C34.7993 32.4553 33.3916 32.2282 32.0764 31.7186C30.7612 31.209 29.568 30.4282 28.5745 29.4271C26.7391 27.278 25.733 24.5433 25.738 21.7171C25.738 18.7201 26.8465 15.9811 28.6765 13.8886L28.6645 13.9021C29.6335 12.8815 30.8087 12.079 32.112 11.5477C33.4152 11.0165 34.8166 10.7688 36.223 10.8211H36.205C38.1328 10.7731 40.0293 11.3148 41.641 12.3736L41.605 12.3511C43.0886 13.3237 44.269 14.6939 45.0115 16.3051L45.0355 16.3636C45.7887 18.0523 46.1752 19.8815 46.1695 21.7306L46.168 21.9316V21.9211C46.168 22.1751 46.153 22.5266 46.123 22.9756H31.3645C31.2703 24.3789 31.7339 25.7627 32.6545 26.8261L32.6485 26.8186C33.1437 27.2936 33.7335 27.659 34.3793 27.8908C35.0252 28.1226 35.7127 28.2157 36.397 28.1641L36.3805 28.1656L36.388 28.1761ZM6.45997 27.0481H13.0945C16.1585 27.0481 17.6905 25.8011 17.6905 23.3071C17.6905 20.6171 16.2035 19.2721 13.2295 19.2721H6.45997V27.0481ZM6.45997 15.0106H12.76C13.7549 15.0669 14.7383 14.7747 15.541 14.1841L15.529 14.1931C15.8868 13.8755 16.1652 13.4784 16.3418 13.0337C16.5184 12.589 16.5883 12.1092 16.546 11.6326L16.5475 11.6446C16.5475 9.4926 15.128 8.4161 12.289 8.4151H6.45997V15.0106ZM0.249974 3.6016H13.57L13.759 3.6001C14.9215 3.6001 16.057 3.7141 17.155 3.9331L17.044 3.9151C18.0579 4.1194 19.0317 4.48774 19.927 5.0056L19.8805 4.9816C20.7535 5.4886 21.445 6.2266 21.8815 7.1116L21.895 7.1416C22.4006 8.22461 22.6422 9.4121 22.6 10.6066V10.5946L22.603 10.7911C22.6033 12.0107 22.2403 13.2028 21.5604 14.2153C20.8805 15.2278 19.9145 16.0148 18.7855 16.4761L18.745 16.4911C20.2872 16.8654 21.648 17.7715 22.588 19.0501L22.6015 19.0681C23.5076 20.4206 23.9623 22.0253 23.9005 23.6521V23.6386V23.7466C23.9013 24.7759 23.7084 25.7961 23.332 26.7541L23.3515 26.6986C23.0186 27.5644 22.5146 28.3541 21.8695 29.0206L21.871 29.0191C21.241 29.6491 20.5135 30.1801 19.7125 30.5881L19.6645 30.6106C18.8292 31.039 17.9395 31.3519 17.02 31.5406L16.951 31.5526C15.9856 31.7467 15.0032 31.8432 14.0185 31.8406H0.248474L0.249974 3.6016Z" fill="#5A7184"/>
</g>
<defs>
<clipPath id="clip0_334_405">
<rect width="46.5" height="36" fill="white" transform="translate(0.25)"/>
</clipPath>
</defs>
</svg>
