<svg width="37" height="36" viewBox="0 0 37 36" fill="none" xmlns="http://www.w3.org/2000/svg">
<path d="M19.792 3C21.4795 3.0045 22.336 3.0135 23.0755 3.0345L23.3665 3.045C23.7025 3.057 24.034 3.072 24.4345 3.09C26.0305 3.165 27.1195 3.417 28.075 3.7875C29.065 4.1685 29.899 4.6845 30.733 5.517C31.4958 6.26684 32.0859 7.17388 32.4625 8.175C32.833 9.1305 33.085 10.2195 33.16 11.817C33.178 12.216 33.193 12.5475 33.205 12.885L33.214 13.176C33.2365 13.914 33.2455 14.7705 33.2485 16.458L33.25 17.577V19.542C33.2537 20.6361 33.2422 21.7302 33.2155 22.824L33.2065 23.115C33.1945 23.4525 33.1795 23.784 33.1615 24.183C33.0865 25.7805 32.8315 26.868 32.4625 27.825C32.087 28.8267 31.4967 29.7339 30.733 30.483C29.983 31.2455 29.076 31.8356 28.075 32.2125C27.1195 32.583 26.0305 32.835 24.4345 32.91C24.0786 32.9268 23.7226 32.9418 23.3665 32.955L23.0755 32.964C22.336 32.985 21.4795 32.9955 19.792 32.9985L18.673 33H16.7095C15.6149 33.0038 14.5203 32.9923 13.426 32.9655L13.135 32.9565C12.7789 32.943 12.4229 32.9275 12.067 32.91C10.471 32.835 9.38201 32.583 8.42501 32.2125C7.42401 31.8366 6.51734 31.2463 5.76851 30.483C5.00508 29.7334 4.41435 28.8263 4.03751 27.825C3.66701 26.8695 3.41501 25.7805 3.34001 24.183C3.3233 23.8271 3.3083 23.4711 3.29501 23.115L3.28751 22.824C3.25987 21.7302 3.24737 20.6361 3.25001 19.542V16.458C3.24582 15.3639 3.25683 14.2698 3.28301 13.176L3.29351 12.885C3.30551 12.5475 3.32051 12.216 3.33851 11.817C3.41351 10.2195 3.66551 9.132 4.03601 8.175C4.41268 7.17286 5.00459 6.26554 5.77001 5.517C6.51865 4.75421 7.42473 4.16398 8.42501 3.7875C9.38201 3.417 10.4695 3.165 12.067 3.09C12.466 3.072 12.799 3.057 13.135 3.045L13.426 3.036C14.5198 3.00935 15.6139 2.99785 16.708 3.0015L19.792 3ZM18.25 10.5C16.2609 10.5 14.3532 11.2902 12.9467 12.6967C11.5402 14.1032 10.75 16.0109 10.75 18C10.75 19.9891 11.5402 21.8968 12.9467 23.3033C14.3532 24.7098 16.2609 25.5 18.25 25.5C20.2391 25.5 22.1468 24.7098 23.5533 23.3033C24.9598 21.8968 25.75 19.9891 25.75 18C25.75 16.0109 24.9598 14.1032 23.5533 12.6967C22.1468 11.2902 20.2391 10.5 18.25 10.5ZM18.25 13.5C18.841 13.4999 19.4261 13.6162 19.9721 13.8423C20.5181 14.0683 21.0143 14.3997 21.4322 14.8175C21.8501 15.2353 22.1817 15.7313 22.4079 16.2772C22.6342 16.8232 22.7507 17.4083 22.7508 17.9993C22.7509 18.5902 22.6346 19.1754 22.4085 19.7214C22.1825 20.2674 21.8511 20.7635 21.4333 21.1814C21.0155 21.5994 20.5195 21.9309 19.9735 22.1572C19.4276 22.3834 18.8425 22.4999 18.2515 22.5C17.058 22.5 15.9134 22.0259 15.0695 21.182C14.2256 20.3381 13.7515 19.1935 13.7515 18C13.7515 16.8065 14.2256 15.6619 15.0695 14.818C15.9134 13.9741 17.058 13.5 18.2515 13.5M26.1265 8.25C25.6292 8.25 25.1523 8.44754 24.8007 8.79917C24.4491 9.15081 24.2515 9.62772 24.2515 10.125C24.2515 10.6223 24.4491 11.0992 24.8007 11.4508C25.1523 11.8025 25.6292 12 26.1265 12C26.6238 12 27.1007 11.8025 27.4523 11.4508C27.804 11.0992 28.0015 10.6223 28.0015 10.125C28.0015 9.62772 27.804 9.15081 27.4523 8.79917C27.1007 8.44754 26.6238 8.25 26.1265 8.25Z" fill="#5A7184"/>
</svg>
