<svg width="87" height="60" viewBox="0 0 87 60" fill="none" xmlns="http://www.w3.org/2000/svg">
<g clip-path="url(#clip0_440_1110)">
<path d="M44.312 8.33071H32.394V51.7344H11.9812V8.33071H0V6.25488H44.312V8.33071Z" fill="#003399"/>
<path fill-rule="evenodd" clip-rule="evenodd" d="M78.84 16.596H66.9216V45.8388H46.5083V44.2038C46.7584 44.0281 47.0057 43.8387 47.2506 43.6356C47.7341 44.1154 48.448 44.7095 49.392 45.4177H62.3089C59.7071 42.7903 57.3124 40.0029 55.1251 37.0557C56.4606 35.1595 57.5311 33.5259 58.3372 32.1551H61.0309V31.0241H57.7154C56.9326 32.5778 55.8735 34.2685 54.5379 36.0962C52.8341 33.8114 51.3145 31.5724 49.9792 29.3791C52.5579 28.0312 53.8472 26.3862 53.8472 24.4442C53.8472 22.8449 53.0414 21.6341 51.4297 20.8115C50.1632 20.1718 48.6436 19.8519 46.8707 19.8519C46.7492 19.8519 46.6283 19.8534 46.5083 19.8562V16.5959H34.527V14.5205H78.8399V16.5959L78.84 16.596ZM46.5084 42.754V42.7213L46.5254 42.7389L46.5084 42.754ZM46.5084 23.4381V20.9225C46.678 20.9172 46.8659 20.9144 47.0723 20.9144C48.494 20.9144 49.6971 21.1542 50.6814 21.6341C51.9881 22.2509 52.6386 23.1875 52.6386 24.4442C52.6386 25.9749 51.5621 27.3 49.4093 28.4195C48.1553 26.5266 47.1896 24.8663 46.5084 23.4381Z" fill="#003399"/>
<path d="M3.57535 3.54277C3.57535 3.93187 3.44581 4.22455 3.18661 4.42087C2.95135 4.60015 2.63239 4.68985 2.23008 4.68985H0V1.02012H2.07654C2.86099 1.02012 3.25315 1.27398 3.25315 1.78146C3.25315 1.9473 3.20197 2.09532 3.09967 2.22564C2.99731 2.3559 2.86603 2.43792 2.70577 2.47182C2.97175 2.51586 3.18319 2.63761 3.34009 2.83729C3.49693 3.03685 3.57535 3.27205 3.57535 3.54277ZM3.07405 1.78146C3.07405 1.52778 2.96497 1.3569 2.74669 1.26882C2.61037 1.2147 2.38872 1.1877 2.08176 1.1877H1.647V2.39052H2.32722C2.53525 2.39052 2.70751 2.3415 2.84383 2.2434C2.99731 2.1351 3.07405 1.9812 3.07405 1.78146ZM3.39625 3.54277C3.39625 3.22129 3.28033 2.97259 3.04849 2.79667C2.83705 2.6376 2.56603 2.5581 2.23524 2.5581H1.647V4.52227H2.23524C2.58301 4.52227 2.85757 4.44787 3.05869 4.29895C3.28375 4.12981 3.39625 3.87769 3.39625 3.54277ZM7.40132 4.68985H4.00501V1.02012H7.18141V1.1877H5.65207V2.39052H7.21201V2.5581H5.65207V4.52227H7.40132V4.68985ZM11.3961 3.50209C11.3961 3.90151 11.27 4.20433 11.0176 4.41061C10.7857 4.59679 10.4636 4.68985 10.0509 4.68985H7.82078V1.02012H11.1046V1.1877H9.46784V2.4363C9.66806 2.36514 9.86414 2.32962 10.0543 2.32962C10.4491 2.32962 10.7653 2.42442 11.0031 2.61385C11.2648 2.82367 11.3961 3.11977 11.3961 3.50209ZM11.2171 3.50209C11.2171 3.18403 11.1012 2.93371 10.8693 2.75089C10.6545 2.58175 10.3834 2.49721 10.0561 2.49721C9.8276 2.49721 9.63152 2.53273 9.46784 2.60371V4.52227H10.0561C10.414 4.52227 10.692 4.44277 10.8897 4.28383C11.1079 4.10779 11.2171 3.84733 11.2171 3.50209ZM13.8822 3.77617H11.8412V2.63923H13.8822V3.77617ZM19.4626 4.68985H17.7951L17.2581 2.70025L16.0867 4.40563L14.9502 2.83039L14.3919 4.68895L14.1992 4.68985L15.3808 0.862862L16.8864 2.96161L18.2964 0.863762L19.4626 4.68985ZM23.9331 4.68985H22.015L21.2937 3.39559H19.7184V3.22801H21.2018L20.8317 2.55973L19.588 4.68805L19.3449 4.68985L21.6467 0.766441H21.6569L23.9331 4.68985ZM27.7643 0C27.6995 0.2538 27.558 0.456721 27.3398 0.609061C27.1215 0.761342 26.8777 0.837482 26.6083 0.837482C26.339 0.837482 26.0952 0.761342 25.8769 0.609061C25.6587 0.456721 25.5172 0.2538 25.4523 0H26.5367V0.720661H26.5675C26.8129 0.720661 27.0311 0.659821 27.2222 0.538021C27.4301 0.406141 27.5648 0.22668 27.6262 0L27.7643 0ZM27.795 4.68985H27.616V1.3704L25.79 4.68985H24.1429V1.02012H25.79L25.7848 4.33873L27.6117 1.01766L27.795 1.02012V4.68985ZM32.1224 3.63415C31.9519 3.97585 31.6961 4.25581 31.3552 4.47415C31.0142 4.69231 30.6526 4.80145 30.2707 4.80145C29.6945 4.80145 29.2145 4.61119 28.8308 4.23043C28.4473 3.84985 28.2555 3.39043 28.2555 2.85241C28.2555 2.31792 28.4498 1.8594 28.8385 1.47702C29.2273 1.0947 29.7029 0.903482 30.2657 0.903482C30.6032 0.903482 30.9314 0.983762 31.2503 1.14456C31.5691 1.30524 31.8172 1.52268 31.9945 1.79676L31.8564 1.90326C31.4507 1.34838 30.9169 1.07094 30.2554 1.07094C30.194 1.07094 30.1224 1.07604 30.0406 1.08618V4.61881C30.0916 4.62895 30.1532 4.63393 30.2247 4.63393C30.5861 4.63393 30.9254 4.53325 31.2426 4.33195C31.5598 4.13065 31.8052 3.86761 31.9791 3.54277L32.1224 3.63415ZM35.7285 1.1877H34.7668V4.68985H33.1198V1.1877H32.153V1.02012H35.7285V1.1877ZM39.4777 4.68985H36.0815V1.02012H39.2579V1.1877H37.7286V2.39052H39.2885V2.5581H37.7286V4.52227H39.4777V4.68985ZM43.4726 2.20788C43.4726 2.59021 43.3413 2.88631 43.0796 3.09613C42.8418 3.28555 42.5256 3.38035 42.1308 3.38035C41.9406 3.38035 41.7445 3.34483 41.5443 3.27379V4.68985H39.8973V1.02012H42.1273C42.54 1.02012 42.8622 1.11318 43.0941 1.29936C43.3465 1.50582 43.4726 1.80864 43.4726 2.20788ZM43.2936 2.20788C43.2936 1.86276 43.1844 1.60218 42.9661 1.42626C42.7651 1.2672 42.4871 1.1877 42.1325 1.1877H41.5443V3.10627C41.725 3.17725 41.9211 3.21277 42.1325 3.21277C42.4599 3.21277 42.7309 3.12829 42.9457 2.95909C43.1776 2.77627 43.2936 2.52594 43.2936 2.20788Z" fill="#003399"/>
<path d="M38.16 51.3903H34.7637V47.7206H37.9401V47.8882H36.4107V49.091H37.9707V49.2586H36.4107V51.2227H38.16V51.3903ZM45.2131 51.3903H43.2505L42.305 49.9175L41.0766 51.4326L40.8549 51.4309L42.2054 49.7661L40.8959 47.7206H42.7868L43.6496 49.0607L44.7305 47.719L44.9521 47.7206L43.7501 49.213L45.2131 51.3903ZM52.0616 49.2586H51.6625V51.3903H51.4835V49.2586H49.7495V51.3903H48.1025V47.7206H49.7495V49.091H51.4835V47.7206H51.6625V49.091H52.0616V49.2586ZM58.864 49.5529C58.864 50.0977 58.673 50.5588 58.2911 50.9361C57.9091 51.3133 57.4455 51.502 56.8998 51.502C56.361 51.502 55.8981 51.3108 55.5111 50.9284C55.124 50.546 54.9306 50.0876 54.9306 49.5529C54.9306 49.0184 55.124 48.5599 55.5111 48.1775C55.8981 47.7952 56.361 47.604 56.8998 47.604C57.442 47.604 57.9049 47.7943 58.2886 48.1749C58.6722 48.5557 58.864 49.0149 58.864 49.5529ZM58.685 49.5529C58.685 49.0657 58.5102 48.6469 58.1598 48.2968C57.8095 47.9466 57.3891 47.7714 56.8989 47.7714C56.8077 47.7714 56.7463 47.7766 56.7157 47.7866V51.3193C56.7565 51.3294 56.8163 51.3344 56.8939 51.3344C57.3909 51.3344 57.8136 51.1611 58.1625 50.8143C58.5111 50.4675 58.685 50.0469 58.685 49.5529ZM65.3186 51.3903H63.6715V47.8882H62.4438V50.7406C62.4438 51.0012 62.3842 51.1823 62.2657 51.2838C62.1472 51.3852 62.0049 51.436 61.8387 51.436C61.7133 51.436 61.6186 51.4173 61.5538 51.3802L61.6255 51.2177C61.6937 51.2515 61.7687 51.2685 61.8506 51.2685C62.1268 51.2685 62.2649 51.101 62.2649 50.766V47.7206H65.3186V51.3903ZM72.4381 49.5529C72.4381 50.0977 72.2471 50.5588 71.8652 50.9361C71.4832 51.3133 71.0195 51.502 70.4739 51.502C69.9351 51.502 69.4721 51.3108 69.0852 50.9284C68.6981 50.546 68.5047 50.0876 68.5047 49.5529C68.5047 49.0184 68.6981 48.5599 69.0852 48.1775C69.4721 47.7952 69.9351 47.604 70.4739 47.604C71.0161 47.604 71.4789 47.7943 71.8626 48.1749C72.2462 48.5557 72.4381 49.0149 72.4381 49.5529ZM72.2591 49.5529C72.2591 49.0657 72.0843 48.6469 71.7338 48.2968C71.3835 47.9466 70.9632 47.7714 70.473 47.7714C70.3818 47.7714 70.3204 47.7766 70.2898 47.7866V51.3193C70.3306 51.3294 70.3904 51.3344 70.468 51.3344C70.965 51.3344 71.3877 51.1611 71.7365 50.8143C72.0852 50.4675 72.2591 50.0469 72.2591 49.5529ZM78.7136 47.8882H77.261V51.3903H75.614V47.7206H78.7136V47.8882Z" fill="#003399"/>
<path d="M38.1024 11.9571C38.1024 12.3462 37.973 12.6389 37.7138 12.8352C37.4785 13.0145 37.1595 13.1042 36.7572 13.1042H34.5271V9.43451H36.6037C37.3881 9.43451 37.7803 9.68831 37.7803 10.1959C37.7803 10.3616 37.7291 10.5097 37.6268 10.64C37.5245 10.7702 37.3932 10.8523 37.2329 10.8862C37.4989 10.9302 37.7103 11.052 37.8672 11.2517C38.0241 11.4512 38.1024 11.6864 38.1024 11.9571ZM37.6012 10.1959C37.6012 9.94217 37.4921 9.77123 37.2738 9.68321C37.1375 9.62903 36.9159 9.60203 36.6089 9.60203H36.1742V10.8049H36.8543C37.0624 10.8049 37.2347 10.7559 37.371 10.6577C37.5245 10.5494 37.6012 10.3955 37.6012 10.1959ZM37.9234 11.9571C37.9234 11.6356 37.8075 11.3869 37.5756 11.211C37.3642 11.052 37.0931 10.9724 36.7624 10.9724H36.1742V12.9366H36.7624C37.1102 12.9366 37.3847 12.8622 37.5858 12.7133C37.8109 12.5441 37.9234 12.2921 37.9234 11.9571ZM44.4035 11.2668C44.4035 11.8115 44.2125 12.2727 43.8306 12.6499C43.4486 13.0271 42.985 13.2158 42.4393 13.2158C41.9005 13.2158 41.4376 13.0246 41.0506 12.6423C40.6635 12.2599 40.4701 11.8014 40.4701 11.2668C40.4701 10.7323 40.6635 10.2737 41.0506 9.89141C41.4376 9.50903 41.9005 9.31787 42.4393 9.31787C42.9815 9.31787 43.4444 9.50813 43.8281 9.88877C44.2116 10.2695 44.4035 10.7287 44.4035 11.2668ZM44.2245 11.2668C44.2245 10.7795 44.0497 10.3607 43.6993 10.0107C43.349 9.66047 42.9286 9.48527 42.4384 9.48527C42.3472 9.48527 42.2858 9.49037 42.2552 9.50051V13.0331C42.296 13.0433 42.3558 13.0483 42.4334 13.0483C42.9304 13.0483 43.3531 12.875 43.702 12.5281C44.0506 12.1813 44.2245 11.7608 44.2245 11.2668ZM50.5306 10.6222C50.5306 11.0046 50.3993 11.3006 50.1376 11.5105C49.8998 11.6999 49.5835 11.7947 49.1887 11.7947C48.9986 11.7947 48.8025 11.7592 48.6023 11.6882V13.1042H46.9552V9.43451H49.1853C49.598 9.43451 49.9202 9.52751 50.1521 9.71369C50.4045 9.92015 50.5306 10.223 50.5306 10.6222ZM50.3515 10.6222C50.3515 10.2772 50.2424 10.0166 50.0242 9.84065C49.823 9.68159 49.5451 9.60203 49.1905 9.60203H48.6023V11.5206C48.783 11.5916 48.9791 11.6271 49.1905 11.6271C49.5179 11.6271 49.7889 11.5426 50.0038 11.3734C50.2356 11.1906 50.3515 10.9403 50.3515 10.6222ZM56.356 13.1042H54.7089V11.6882C54.5086 11.7592 54.3125 11.7947 54.1225 11.7947C53.7277 11.7947 53.4114 11.6983 53.1737 11.5054C52.912 11.2989 52.7806 11.0046 52.7806 10.6222V9.43451H52.9596V10.6222C52.9596 10.9234 53.0679 11.1661 53.2844 11.3506C53.5011 11.535 53.7798 11.6271 54.1207 11.6271C54.3254 11.6271 54.5214 11.5916 54.7089 11.5206V9.43451H56.356V13.1042ZM60.6878 13.1042H59.0407V9.43451H60.6878V13.1042ZM67.1014 12.0485C66.9309 12.3902 66.6752 12.6701 66.3342 12.8885C65.9932 13.1066 65.6316 13.2158 65.2497 13.2158C64.6735 13.2158 64.1936 13.0255 63.8099 12.6448C63.4263 12.2642 63.2345 11.8048 63.2345 11.2668C63.2345 10.7323 63.4288 10.2737 63.8175 9.89141C64.2063 9.50903 64.682 9.31787 65.2447 9.31787C65.5823 9.31787 65.9104 9.39809 66.2293 9.55889C66.5481 9.71957 66.7962 9.93701 66.9735 10.2111L66.8354 10.3176C66.4297 9.76271 65.8959 9.48527 65.2344 9.48527C65.173 9.48527 65.1014 9.49037 65.0196 9.50051V13.0331C65.0706 13.0433 65.1322 13.0483 65.2037 13.0483C65.5651 13.0483 65.9045 12.9476 66.2216 12.7463C66.5388 12.545 66.7842 12.2819 66.9581 11.9571L67.1014 12.0485ZM72.7835 9.60203H71.8218V13.1042H70.1748V9.60203H69.2081V9.43451H72.7835V9.60203ZM78.7879 11.9165C78.7879 12.3158 78.6617 12.6187 78.4093 12.8249C78.1775 13.0111 77.8553 13.1042 77.4426 13.1042H75.2125V9.43451H76.8596V10.8506C77.0598 10.7795 77.2558 10.744 77.446 10.744C77.8408 10.744 78.1571 10.8388 78.3949 11.0282C78.6566 11.238 78.7879 11.5341 78.7879 11.9165ZM78.6088 11.9165C78.6088 11.5984 78.4929 11.348 78.261 11.1652C78.0462 10.9961 77.7751 10.9115 77.4478 10.9115C77.2193 10.9115 77.0233 10.9471 76.8596 11.0181V12.9366H77.4478C77.8058 12.9366 78.0838 12.8571 78.2814 12.6982C78.4997 12.5221 78.6088 12.2617 78.6088 11.9165Z" fill="#003399"/>
<path fill-rule="evenodd" clip-rule="evenodd" d="M0.000671387 10.4702V60.0001H2.1476V10.4702H0.000671387Z" fill="#003399"/>
<path fill-rule="evenodd" clip-rule="evenodd" d="M80.5593 17.6335V51.5013H82.7063V17.6335H80.5593Z" fill="#003399"/>
<path fill-rule="evenodd" clip-rule="evenodd" d="M80.5593 14.5205V16.7043H82.7063V14.5205H80.5593Z" fill="#003399"/>
<path fill-rule="evenodd" clip-rule="evenodd" d="M84.8531 17.6335V51.5013H87.0001V17.6335H84.8531Z" fill="#003399"/>
<path fill-rule="evenodd" clip-rule="evenodd" d="M84.8531 14.5205V16.7043H87.0001V14.5205H84.8531Z" fill="#003399"/>
<path fill-rule="evenodd" clip-rule="evenodd" d="M78.8193 6.20947H46.5919V8.33984H78.8193V6.20947Z" fill="#000066"/>
<path fill-rule="evenodd" clip-rule="evenodd" d="M4.29456 55.9951H45.6658V53.8647H4.29456V55.9951Z" fill="#000066"/>
<path fill-rule="evenodd" clip-rule="evenodd" d="M84.8531 14.5206V12.3367H87.0001V14.5206H84.8531Z" fill="#000066"/>
<path fill-rule="evenodd" clip-rule="evenodd" d="M46.4527 44.2426C44.8627 45.3458 43.1716 45.8975 41.3794 45.8975C39.4454 45.8975 37.8336 45.3148 36.5442 44.1497C35.2548 42.9845 34.6101 41.4537 34.6101 39.5574C34.6101 36.8615 36.3601 34.6339 39.8597 32.8747C38.4092 30.2473 37.6839 28.1796 37.6839 26.6717C37.6839 24.4556 38.6971 22.7192 40.7232 21.4626C42.3478 20.4524 44.2575 19.9174 46.4527 19.8577V20.9243C46.0456 20.939 45.7487 20.9698 45.5584 21.017C45.754 21.7006 46.0519 22.4686 46.4527 23.3206V42.6636C44.4447 40.5824 42.4256 37.6263 40.3951 33.8C37.3443 35.2908 35.8189 37.17 35.8189 39.4374C35.8189 40.9512 36.3428 42.2192 37.3962 43.2358C38.4438 44.2582 39.7447 44.7665 41.2931 44.7665C43.247 44.7665 44.9668 44.114 46.4527 42.8037V44.2426Z" fill="#000066"/>
</g>
<defs>
<clipPath id="clip0_440_1110">
<rect width="87.0001" height="60" fill="white"/>
</clipPath>
</defs>
</svg>
